<?xml version="1.0" encoding="UTF-8"?>
<svg xmlns="http://www.w3.org/2000/svg" width="392.61" height="170.26" xmlns:xlink="http://www.w3.org/1999/xlink" viewBox="0 0 392.61 170.26">
  <defs>
    <style>
      .cls-1 {
        fill: url(#linear-gradient);
      }

      .cls-2 {
        fill: #5a6e7f;
      }

      .cls-3 {
        fill: #0071bc;
      }

      .cls-4 {
        fill: #5dbeba;
      }
    </style>
    <linearGradient id="linear-gradient" x1="22.81" y1="85.13" x2="89.11" y2="85.13" gradientTransform="matrix(1, 0, 0, 1, 0, 0)" gradientUnits="userSpaceOnUse">
      <stop offset="0" stop-color="#5dbeba"/>
      <stop offset="1" stop-color="#0071bc"/>
    </linearGradient>
  </defs>
  <g id="Layer_1" data-name="Layer 1"/>
  <g id="Layer_2" data-name="Layer 2">
    <g id="Layer_1-2" data-name="Layer 1">
      <g>
        <path class="cls-2" d="M4.15,37.97c-2.29,0-4.15,1.86-4.15,4.15v86.01c0,2.29,1.86,4.15,4.15,4.15s4.15-1.86,4.15-4.15V42.12c0-2.29-1.86-4.15-4.15-4.15Z"/>
        <g>
          <path class="cls-1" d="M84.96,22.78c-2.29,0-4.15,1.86-4.15,4.15V118.69c0,2.72-2.09,4.89-4.74,5.18h-.55c-6.34,0-11.76-23.86-15.36-39.67-5.66-24.88-10.54-46.37-23.76-46.37h-1.27v.27c-6.89,.67-12.33,6.43-12.33,13.49v91.73c0,2.29,1.86,4.15,4.15,4.15s4.15-1.86,4.15-4.15V51.56c0-2.62,1.95-4.7,4.45-5.12h.84c6.34,0,11.76,23.86,15.36,39.67,5.66,24.88,10.54,46.37,23.76,46.37h1.27v-.33c6.89-.67,12.33-6.43,12.33-13.49V26.93c0-2.29-1.86-4.15-4.15-4.15Z"/>
          <path class="cls-3" d="M85.03,0c-4.43,0-8.03,3.6-8.03,8.03s3.6,8.03,8.03,8.03,8.03-3.6,8.03-8.03S89.46,0,85.03,0Z"/>
          <path class="cls-4" d="M26.72,154.19c-4.43,0-8.03,3.6-8.03,8.03s3.6,8.03,8.03,8.03,8.03-3.6,8.03-8.03-3.6-8.03-8.03-8.03Z"/>
        </g>
        <g>
          <path class="cls-2" d="M131.98,37.97h-27.28c-2.29,0-4.15,1.86-4.15,4.15s1.86,4.15,4.15,4.15h9.49v81.86c0,2.29,1.86,4.15,4.15,4.15s4.15-1.86,4.15-4.15V46.27h9.49c2.29,0,4.15-1.86,4.15-4.15s-1.86-4.15-4.15-4.15Z"/>
          <path class="cls-2" d="M156.37,46.27h9.44c2.29,0,4.15-1.86,4.15-4.15s-1.86-4.15-4.15-4.15h-9.44c-6.48,0-11.76,5.21-11.76,11.63V120.66c0,6.41,5.28,11.62,11.76,11.62h9.44c2.29,0,4.15-1.86,4.15-4.15s-1.86-4.15-4.15-4.15h-9.44c-1.84,0-3.46-1.55-3.46-3.32v-10.14h12.9c2.29,0,4.15-1.86,4.15-4.15s-1.86-4.15-4.15-4.15h-12.9V49.6c0-1.77,1.62-3.32,3.46-3.32Z"/>
          <path class="cls-2" d="M245.08,37.32c-9.14,0-16.87,8.14-16.87,17.79v73.69c0,2.29,1.86,4.15,4.15,4.15s4.15-1.86,4.15-4.15V55.1c0-5.41,3.68-9.49,8.57-9.49s8.56,4.08,8.56,9.49v7.94c0,2.29,1.86,4.15,4.15,4.15s4.15-1.86,4.15-4.15v-7.94c0-9.64-7.72-17.79-16.87-17.79Z"/>
          <path class="cls-2" d="M388.46,103.06c-2.29,0-4.15,1.86-4.15,4.15v7.94c0,5.41-3.68,9.49-8.56,9.49s-8.57-4.08-8.57-9.49v-41.35h17.93c2.29,0,4.15-1.86,4.15-4.15s-1.86-4.15-4.15-4.15h-17.93v-24.03c0-2.29-1.86-4.15-4.15-4.15s-4.15,1.86-4.15,4.15V115.15c0,9.64,7.73,17.79,16.87,17.79s16.87-8.14,16.87-17.79v-7.94c0-2.29-1.86-4.15-4.15-4.15Z"/>
          <path class="cls-2" d="M206.87,39.89c-2.53-1.62-5.46-2.57-8.56-2.57s-6.04,.96-8.57,2.58c-4.92,3.15-8.3,8.84-8.3,15.21v31.87c0,6.37,3.38,12.07,8.3,15.21,2.53,1.62,5.46,2.57,8.56,2.57s6.04-.96,8.57-2.58v12.97c0,5.41-3.68,9.49-8.57,9.49s-8.56-4.08-8.56-9.49v-.77c0-2.29-1.86-4.15-4.15-4.15s-4.15,1.86-4.15,4.15v.77c0,9.64,7.72,17.79,16.87,17.79s16.87-8.14,16.87-17.79V55.1c0-6.37-3.38-12.07-8.3-15.21Zm-8.57,56.57c-4.88,0-8.56-4.08-8.56-9.49v-31.87c0-5.41,3.68-9.49,8.57-9.49s8.56,4.08,8.56,9.49v31.87c0,5.41-3.68,9.49-8.57,9.49Z"/>
          <path class="cls-2" d="M293.2,39.89c-2.53-1.62-5.46-2.58-8.57-2.58s-6.03,.96-8.56,2.57c-4.92,3.15-8.3,8.84-8.3,15.21v60.05c0,9.64,7.73,17.79,16.87,17.79s16.87-8.14,16.87-17.79v-.77c0-2.29-1.86-4.15-4.15-4.15s-4.15,1.86-4.15,4.15v.77c0,5.41-3.68,9.49-8.56,9.49s-8.57-4.08-8.57-9.49v-12.97c2.53,1.62,5.46,2.58,8.57,2.58s6.03-.96,8.56-2.57c4.92-3.15,8.3-8.84,8.3-15.21v-31.87c0-6.37-3.38-12.06-8.3-15.21Zm0,47.08c0,5.41-3.68,9.49-8.56,9.49s-8.57-4.08-8.57-9.49v-31.87c0-5.41,3.68-9.49,8.56-9.49s8.57,4.08,8.57,9.49v31.87Z"/>
          <path class="cls-2" d="M329.93,37.32c-9.14,0-16.87,8.14-16.87,17.79v.77c0,2.29,1.86,4.15,4.15,4.15s4.15-1.86,4.15-4.15v-.77c0-5.41,3.68-9.49,8.56-9.49s8.57,4.08,8.57,9.49v12.97c-2.53-1.62-5.46-2.58-8.57-2.58s-6.03,.96-8.56,2.57c-4.92,3.15-8.3,8.84-8.3,15.21v31.87c0,6.37,3.38,12.06,8.3,15.21,2.53,1.62,5.46,2.58,8.57,2.58s6.03-.96,8.56-2.57c4.92-3.15,8.3-8.84,8.3-15.21V55.1c0-9.64-7.73-17.79-16.87-17.79Zm8.57,77.84c0,5.41-3.68,9.49-8.56,9.49s-8.57-4.08-8.57-9.49v-31.87c0-5.41,3.68-9.49,8.56-9.49s8.57,4.08,8.57,9.49v31.87Z"/>
        </g>
      </g>
    </g>
  </g>
</svg>